<svg width="300" height="308" viewBox="0 0 300 308" fill="none" xmlns="http://www.w3.org/2000/svg">
    <path d="M224.071 85.7855C224.071 130.864 189.127 167.071 146.428 167.071C103.729 167.071 68.7849 130.864 68.7849 85.7855C68.7849 40.7067 103.729 4.5 146.428 4.5C189.127 4.5 224.071 40.7067 224.071 85.7855Z" stroke="#CED6C2" stroke-width="9"/>
    <path d="M4.60594 303.5C7.53011 241.472 70.6387 190.54 150 190.54C229.361 190.54 292.47 241.472 295.394 303.5H295.312H294.727H294.141H293.555H292.969H292.383H291.797H291.211H290.625H290.039H289.453H288.867H288.281H287.695H287.109H286.523H285.938H285.352H284.766H284.18H283.594H283.008H282.422H281.836H281.25H280.664H280.078H279.492H278.906H278.32H277.734H277.148H276.562H275.977H275.391H274.805H274.219H273.633H273.047H272.461H271.875H271.289H270.703H270.117H269.531H268.945H268.359H267.773H267.188H266.602H266.016H265.43H264.844H264.258H263.672H263.086H262.5H261.914H261.328H260.742H260.156H259.57H258.984H258.398H257.812H257.227H256.641H256.055H255.469H254.883H254.297H253.711H253.125H252.539H251.953H251.367H250.781H250.195H249.609H249.023H248.438H247.852H247.266H246.68H246.094H245.508H244.922H244.336H243.75H243.164H242.578H241.992H241.406H240.82H240.234H239.648H239.062H238.477H237.891H237.305H236.719H236.133H235.547H234.961H234.375H233.789H233.203H232.617H232.031H231.445H230.859H230.273H229.688H229.102H228.516H227.93H227.344H226.758H226.172H225.586H225H224.414H223.828H223.242H222.656H222.07H221.484H220.898H220.312H219.727H219.141H218.555H217.969H217.383H216.797H216.211H215.625H215.039H214.453H213.867H213.281H212.695H212.109H211.523H210.938H210.352H209.766H209.18H208.594H208.008H207.422H206.836H206.25H205.664H205.078H204.492H203.906H203.32H202.734H202.148H201.562H200.977H200.391H199.805H199.219H198.633H198.047H197.461H196.875H196.289H195.703H195.117H194.531H193.945H193.359H192.773H192.188H191.602H191.016H190.43H189.844H189.258H188.672H188.086H187.5H186.914H186.328H185.742H185.156H184.57H183.984H183.398H182.812H182.227H181.641H181.055H180.469H179.883H179.297H178.711H178.125H177.539H176.953H176.367H175.781H175.195H174.609H174.023H173.438H172.852H172.266H171.68H171.094H170.508H169.922H169.336H168.75H168.164H167.578H166.992H166.406H165.82H165.234H164.648H164.062H163.477H162.891H162.305H161.719H161.133H160.547H159.961H159.375H158.789H158.203H157.617H157.031H156.445H155.859H155.273H154.688H154.102H153.516H152.93H152.344H151.758H151.172H150.586H150H149.414H148.828H148.242H147.656H147.07H146.484H145.898H145.312H144.727H144.141H143.555H142.969H142.383H141.797H141.211H140.625H140.039H139.453H138.867H138.281H137.695H137.109H136.523H135.938H135.352H134.766H134.18H133.594H133.008H132.422H131.836H131.25H130.664H130.078H129.492H128.906H128.32H127.734H127.148H126.562H125.977H125.391H124.805H124.219H123.633H123.047H122.461H121.875H121.289H120.703H120.117H119.531H118.945H118.359H117.773H117.188H116.602H116.016H115.43H114.844H114.258H113.672H113.086H112.5H111.914H111.328H110.742H110.156H109.57H108.984H108.398H107.812H107.227H106.641H106.055H105.469H104.883H104.297H103.711H103.125H102.539H101.953H101.367H100.781H100.195H99.6094H99.0234H98.4375H97.8516H97.2656H96.6797H96.0938H95.5078H94.9219H94.3359H93.75H93.1641H92.5781H91.9922H91.4062H90.8203H90.2344H89.6484H89.0625H88.4766H87.8906H87.3047H86.7188H86.1328H85.5469H84.9609H84.375H83.7891H83.2031H82.6172H82.0312H81.4453H80.8594H80.2734H79.6875H79.1016H78.5156H77.9297H77.3438H76.7578H76.1719H75.5859H75H74.4141H73.8281H73.2422H72.6562H72.0703H71.4844H70.8984H70.3125H69.7266H69.1406H68.5547H67.9688H67.3828H66.7969H66.2109H65.625H65.0391H64.4531H63.8672H63.2812H62.6953H62.1094H61.5234H60.9375H60.3516H59.7656H59.1797H58.5938H58.0078H57.4219H56.8359H56.25H55.6641H55.0781H54.4922H53.9062H53.3203H52.7344H52.1484H51.5625H50.9766H50.3906H49.8047H49.2188H48.6328H48.0469H47.4609H46.875H46.2891H45.7031H45.1172H44.5312H43.9453H43.3594H42.7734H42.1875H41.6016H41.0156H40.4297H39.8438H39.2578H38.6719H38.0859H37.5H36.9141H36.3281H35.7422H35.1562H34.5703H33.9844H33.3984H32.8125H32.2266H31.6406H31.0547H30.4688H29.8828H29.2969H28.7109H28.125H27.5391H26.9531H26.3672H25.7812H25.1953H24.6094H24.0234H23.4375H22.8516H22.2656H21.6797H21.0938H20.5078H19.9219H19.3359H18.75H18.1641H17.5781H16.9922H16.4062H15.8203H15.2344H14.6484H14.0625H13.4766H12.8906H12.3047H11.7188H11.1328H10.5469H9.96094H9.375H8.78906H8.20312H7.61719H7.03125H6.44531H5.85938H5.27344H4.6875H4.60594Z" stroke="#CED6C2" stroke-width="9"/>
</svg>
