<svg width="32" height="32" viewBox="0 0 32 32" fill="none" xmlns="http://www.w3.org/2000/svg">
    <circle cx="16" cy="16" r="14.9565" stroke="#C2BAAF" stroke-width="2.08696"/>
    <path d="M15.6346 24V12.2017H17.7716V24H15.6346ZM16.7031 9.93113C16.2876 9.93113 15.9388 9.79756 15.6568 9.53043C15.3897 9.2633 15.2561 8.93681 15.2561 8.55096C15.2561 8.15026 15.3897 7.81635 15.6568 7.54922C15.9388 7.28209 16.2876 7.14852 16.7031 7.14852C17.1186 7.14852 17.46 7.28209 17.7271 7.54922C18.0091 7.80151 18.1501 8.12058 18.1501 8.50643C18.1501 8.90713 18.0165 9.24846 17.7494 9.53043C17.4822 9.79756 17.1335 9.93113 16.7031 9.93113Z" fill="#C2BAAF"/>
</svg>
