<svg width="35" height="35" viewBox="0 0 35 35" fill="none" xmlns="http://www.w3.org/2000/svg">
    <circle cx="17.5" cy="17.5" r="16.3587" stroke="black" stroke-width="2.28261"/>
    <path d="M16.7721 27V14.0957H19.1095V27H16.7721ZM17.9408 11.6122C17.4863 11.6122 17.1048 11.4661 16.7964 11.1739C16.5042 10.8817 16.3581 10.5246 16.3581 10.1026C16.3581 9.66435 16.5042 9.29913 16.7964 9.00696C17.1048 8.71478 17.4863 8.5687 17.9408 8.5687C18.3952 8.5687 18.7686 8.71478 19.0608 9.00696C19.3692 9.2829 19.5234 9.63188 19.5234 10.0539C19.5234 10.4922 19.3773 10.8655 19.0851 11.1739C18.7929 11.4661 18.4115 11.6122 17.9408 11.6122Z" fill="black"/>
</svg>