<svg class="main-icon" viewBox="0 0 177 49" fill="none" xmlns="http://www.w3.org/2000/svg">
    <path d="M47.9611 41.0348V27.8437C47.9611 27.1244 47.9379 26.3935 47.8914 25.651C47.845 24.9085 47.7754 24.1776 47.6826 23.4583H51.894L52.2421 26.9388H51.8244C52.3117 25.7322 53.0542 24.7925 54.0519 24.1196C55.0729 23.4467 56.2795 23.1102 57.6717 23.1102C59.0639 23.1102 60.2124 23.4467 61.1174 24.1196C62.0455 24.7693 62.6952 25.7902 63.0665 27.1824H62.5096C62.9969 25.9294 63.7974 24.9433 64.9111 24.224C66.0249 23.4815 67.3011 23.1102 68.7397 23.1102C70.712 23.1102 72.1854 23.6903 73.1599 24.8505C74.1345 26.0107 74.6218 27.8205 74.6218 30.2801V41.0348H70.2711V30.4541C70.2711 29.0619 70.0391 28.0642 69.575 27.4609C69.1109 26.8344 68.3684 26.5211 67.3475 26.5211C66.1409 26.5211 65.1896 26.9504 64.4935 27.8089C63.7974 28.6442 63.4493 29.7812 63.4493 31.2198V41.0348H59.0987V30.4541C59.0987 29.0619 58.8666 28.0642 58.4026 27.4609C57.9385 26.8344 57.196 26.5211 56.1751 26.5211C54.9685 26.5211 54.0171 26.9504 53.321 27.8089C52.6481 28.6442 52.3117 29.7812 52.3117 31.2198V41.0348H47.9611Z" fill="white"/>
    <path d="M78.7472 48.9356L77.7379 45.4899C78.8284 45.2579 79.745 44.991 80.4875 44.6894C81.23 44.3877 81.8449 43.9933 82.3322 43.506C82.8194 43.0187 83.2255 42.3922 83.5503 41.6265L84.4205 39.573L84.3161 41.2785L76.6589 23.4583H81.288L86.7872 37.1715H85.7779L91.3119 23.4583H95.6973L87.6921 42.0094C87.1585 43.2624 86.5784 44.2949 85.9519 45.107C85.3254 45.9424 84.6525 46.6037 83.9332 47.0909C83.2139 47.6014 82.425 47.9959 81.5664 48.2743C80.7079 48.5527 79.7682 48.7732 78.7472 48.9356Z" fill="white"/>
    <path d="M105.728 41.3829C103.918 41.3829 102.329 41.0116 100.96 40.2691C99.6141 39.5266 98.57 38.4709 97.8275 37.1019C97.085 35.7097 96.7137 34.0622 96.7137 32.1595C96.7137 30.2569 97.085 28.6326 97.8275 27.2868C98.5932 25.941 99.649 24.9085 100.995 24.1892C102.341 23.4699 103.918 23.1102 105.728 23.1102C106.888 23.1102 108.014 23.2959 109.104 23.6671C110.218 24.0152 111.123 24.5256 111.819 25.1985L110.497 28.2266C109.87 27.6465 109.162 27.2172 108.373 26.9388C107.608 26.6371 106.854 26.4863 106.111 26.4863C104.556 26.4863 103.338 26.9736 102.457 27.9481C101.598 28.9227 101.169 30.3381 101.169 32.1944C101.169 34.0506 101.598 35.4776 102.457 36.4754C103.338 37.4731 104.556 37.972 106.111 37.972C106.83 37.972 107.573 37.8328 108.339 37.5543C109.128 37.2759 109.847 36.8466 110.497 36.2665L111.819 39.2598C111.1 39.9327 110.183 40.4548 109.07 40.826C107.979 41.1973 106.865 41.3829 105.728 41.3829Z" fill="white"/>
    <path d="M121.877 41.3829C120.346 41.3829 119 41.0232 117.84 40.3039C116.679 39.5614 115.774 38.5057 115.125 37.1367C114.475 35.7677 114.15 34.1318 114.15 32.2292C114.15 30.3265 114.475 28.7022 115.125 27.3564C115.774 25.9874 116.679 24.9433 117.84 24.224C119 23.4815 120.346 23.1102 121.877 23.1102C123.362 23.1102 124.661 23.4815 125.775 24.224C126.912 24.9433 127.666 25.9178 128.037 27.1476H127.655L128.037 23.4583H132.214C132.144 24.1776 132.075 24.9085 132.005 25.651C131.959 26.3935 131.936 27.1244 131.936 27.8437V41.0348H127.62L127.585 37.4151H128.003C127.631 38.6217 126.877 39.5846 125.74 40.3039C124.603 41.0232 123.316 41.3829 121.877 41.3829ZM123.095 38.0416C124.464 38.0416 125.566 37.5659 126.402 36.6146C127.237 35.6401 127.655 34.1782 127.655 32.2292C127.655 30.2801 127.237 28.8299 126.402 27.8785C125.566 26.9272 124.464 26.4515 123.095 26.4515C121.726 26.4515 120.624 26.9272 119.789 27.8785C118.953 28.8299 118.536 30.2801 118.536 32.2292C118.536 34.1782 118.942 35.6401 119.754 36.6146C120.589 37.5659 121.703 38.0416 123.095 38.0416Z" fill="white"/>
    <path d="M136.673 41.0348V15.4183H141.024V41.0348H136.673Z" fill="white"/>
    <path d="M153.823 41.3829C152.013 41.3829 150.424 41.0116 149.055 40.2691C147.709 39.5266 146.665 38.4709 145.922 37.1019C145.18 35.7097 144.809 34.0622 144.809 32.1595C144.809 30.2569 145.18 28.6326 145.922 27.2868C146.688 25.941 147.744 24.9085 149.09 24.1892C150.435 23.4699 152.013 23.1102 153.823 23.1102C154.983 23.1102 156.109 23.2959 157.199 23.6671C158.313 24.0152 159.218 24.5256 159.914 25.1985L158.591 28.2266C157.965 27.6465 157.257 27.2172 156.468 26.9388C155.703 26.6371 154.949 26.4863 154.206 26.4863C152.651 26.4863 151.433 26.9736 150.551 27.9481C149.693 28.9227 149.264 30.3381 149.264 32.1944C149.264 34.0506 149.693 35.4776 150.551 36.4754C151.433 37.4731 152.651 37.972 154.206 37.972C154.925 37.972 155.668 37.8328 156.434 37.5543C157.222 37.2759 157.942 36.8466 158.591 36.2665L159.914 39.2598C159.195 39.9327 158.278 40.4548 157.164 40.826C156.074 41.1973 154.96 41.3829 153.823 41.3829Z" fill="white"/>
    <path d="M169.552 41.3829C168.044 41.3829 166.651 41.2089 165.375 40.8608C164.122 40.4896 163.066 39.9791 162.208 39.3294L163.426 36.4058C164.308 37.0091 165.282 37.4731 166.35 37.798C167.417 38.1228 168.496 38.2852 169.587 38.2852C170.747 38.2852 171.605 38.088 172.162 37.6936C172.742 37.2991 173.032 36.7654 173.032 36.0925C173.032 35.5588 172.847 35.1412 172.475 34.8395C172.127 34.5147 171.559 34.2711 170.77 34.1086L167.289 33.4473C165.804 33.1225 164.667 32.5656 163.879 31.7767C163.113 30.9878 162.73 29.9552 162.73 28.679C162.73 27.5885 163.02 26.6255 163.6 25.7902C164.203 24.9549 165.05 24.3052 166.141 23.8411C167.255 23.3539 168.554 23.1102 170.039 23.1102C171.338 23.1102 172.557 23.2843 173.694 23.6323C174.854 23.9804 175.828 24.5024 176.617 25.1985L175.364 28.0177C174.645 27.4377 173.821 26.9852 172.893 26.6603C171.965 26.3355 171.06 26.1731 170.178 26.1731C168.972 26.1731 168.09 26.3935 167.533 26.8344C166.976 27.252 166.698 27.7973 166.698 28.4702C166.698 28.9807 166.86 29.4099 167.185 29.758C167.533 30.0828 168.067 30.3265 168.786 30.4889L172.267 31.1502C173.821 31.4518 174.993 31.9855 175.782 32.7512C176.594 33.4937 177 34.5147 177 35.8141C177 36.9742 176.687 37.972 176.06 38.8073C175.434 39.6426 174.564 40.2807 173.45 40.7216C172.336 41.1625 171.037 41.3829 169.552 41.3829Z" fill="white"/>
    <path fill-rule="evenodd" clip-rule="evenodd" d="M41.0349 0H0V41.0349H13.6783V27.3566H7.59905L34.1957 7.2191L41.0349 12.5384V0ZM41.0349 41.0348V27.3566H27.3566V41.0348H41.0349Z" fill="white"/>
</svg>