<svg width="71" height="103" viewBox="0 0 71 103" fill="none" xmlns="http://www.w3.org/2000/svg">
    <path d="M32.9529 71.6591C32.9529 67.6136 33.579 64.1461 34.8312 61.2564C36.1796 58.3668 37.8171 55.8143 39.7435 53.599C41.7662 51.3836 43.8853 49.3127 46.1007 47.3863C48.4124 45.4599 50.5796 43.5335 52.6023 41.6071C54.625 39.5843 56.2625 37.4171 57.5146 35.1054C58.7668 32.6974 59.3929 29.9041 59.3929 26.7255C59.3929 21.5242 57.3702 17.2861 53.3247 14.0112C49.2792 10.7363 43.5482 9.09888 36.1315 9.09888C29.967 9.09888 24.6212 10.1102 20.0941 12.133C15.5671 14.0594 11.7142 16.949 8.53566 20.8018L0.878174 15.0226C4.731 10.2066 9.6915 6.49822 15.7597 3.89756C21.8279 1.29691 28.8593 -0.00341797 36.8539 -0.00341797C43.5963 -0.00341797 49.4237 1.00795 54.3361 3.03067C59.3447 5.05341 63.1976 7.94303 65.8945 11.6995C68.6878 15.456 70.0845 19.9349 70.0845 25.1362C70.0845 29.278 69.4102 32.8419 68.0617 35.8278C66.8096 38.7174 65.1721 41.3181 63.1494 43.6298C61.223 45.8452 59.1039 47.9642 56.7922 49.9869C54.5769 51.9133 52.4578 53.8879 50.4351 55.9107C48.4124 57.9334 46.7749 60.1969 45.5227 62.7012C44.2706 65.2056 43.6445 68.1915 43.6445 71.6591H32.9529ZM38.2987 102.722C36.276 102.722 34.494 102 32.9529 100.555C31.5081 99.0141 30.7857 97.2322 30.7857 95.2094C30.7857 93.0904 31.5081 91.3566 32.9529 90.0081C34.494 88.5633 36.276 87.8409 38.2987 87.8409C40.5141 87.8409 42.3442 88.5633 43.789 90.0081C45.2338 91.3566 45.9562 93.0904 45.9562 95.2094C45.9562 97.2322 45.2338 99.0141 43.789 100.555C42.3442 102 40.5141 102.722 38.2987 102.722Z" fill="#CED6C2"/>
</svg>
